<svg xmlns="http://www.w3.org/2000/svg" width="48" height="48" viewBox="0 0 48 48" fill="none">
  <path d="M48 24C48 10.7452 37.2548 7.55471e-05 24 7.58128e-05C10.7452 7.60785e-05 -3.55072e-06 10.7452 -2.28742e-06 24C-1.02411e-06 37.2548 10.7452 48 24 48C37.2548 48 48 37.2548 48 24Z" fill="white"/>
  <mask id="mask0_8841_6198" style="mask-type:alpha" maskUnits="userSpaceOnUse" x="0" y="0" width="48" height="48">
    <path d="M48 24C48 10.7452 37.2548 7.55471e-05 24 7.58128e-05C10.7452 7.60785e-05 -3.55072e-06 10.7452 -2.28742e-06 24C-1.02411e-06 37.2548 10.7452 48 24 48C37.2548 48 48 37.2548 48 24Z" fill="white"/>
  </mask>
  <g mask="url(#mask0_8841_6198)">
    <path d="M44 48.0003H4C5.84398 39.9083 10.794 38.292 10.794 38.292L20.3351 33.9307L23.9501 33.8984H24.0495L27.6685 33.9307L37.2089 38.292C37.2089 38.292 42.1557 39.9083 44 48.0003Z" fill="#056F8C"/>
    <path d="M26.2009 10.6574C26.2009 10.6574 29.5299 9.2078 30.7102 11.949C31.8462 14.5884 27.3343 17.1038 27.3343 17.1038L26.2009 10.6574Z" fill="#1D0300"/>
    <path d="M19.9756 21.5194C20.0108 22.7382 19.0281 23.7546 17.7814 23.789C16.5336 23.8234 15.4941 22.8633 15.4589 21.6441C15.4237 20.4253 16.4064 19.4093 17.6531 19.3749C18.9001 19.3402 19.9404 20.3006 19.9756 21.5194Z" fill="#DC7E68"/>
    <path d="M16.4431 21.354C16.4431 21.354 17.3415 20.9265 18.1976 22.4517" stroke="#C0513C" stroke-width="0.268777" stroke-miterlimit="10" stroke-linecap="round" stroke-linejoin="round"/>
    <path d="M28.1702 21.5819C28.1702 22.8011 29.1818 23.7898 30.4292 23.7898C31.677 23.7898 32.6883 22.8011 32.6883 21.5819C32.6883 20.3624 31.677 19.374 30.4292 19.374C29.1818 19.374 28.1702 20.3624 28.1702 21.5819Z" fill="#DC7E68"/>
    <path d="M31.7714 21.346C31.7714 21.346 30.861 20.9432 30.0496 22.4917" stroke="#C0513C" stroke-width="0.268777" stroke-miterlimit="10" stroke-linecap="round" stroke-linejoin="round"/>
    <path d="M26.9406 26.6645C26.9406 26.6645 25.6667 27.5428 24.5062 27.7596C23.3457 27.9764 22.2171 27.3181 22.2028 27.3102C22.1885 27.302 20.8476 26.5483 20.8476 26.5483L20.2925 33.8157L20.4424 33.9365C22.4107 35.5233 25.2476 35.542 27.2376 33.9816L27.5287 33.7534L26.9406 26.6645Z" fill="#DC7E68"/>
    <path d="M20.2925 25.8486C20.2925 25.8486 21.5582 29.8982 24.471 29.8534C26.8654 29.8161 27.2515 25.8486 27.2515 25.8486H20.2925Z" fill="#1D0300"/>
    <path d="M30.1585 17.7517C30.1713 20.2474 29.8175 22.403 29.4618 23.9332C29.1127 25.4316 28.115 26.4823 26.7015 27.3313L26.4441 27.4857C24.9488 28.3838 23.0113 28.4143 21.4838 27.5635C19.9434 26.7052 18.8617 25.5692 18.5229 23.9651C17.9055 21.0473 17.823 17.8126 17.823 17.8126C17.823 17.8126 16.9558 11.062 23.609 11.1513C30.2619 11.2409 30.1585 17.7517 30.1585 17.7517Z" fill="#DC7E68"/>
    <path d="M21.7277 19.7257C21.7273 20.0163 21.4864 20.2517 21.1887 20.2517C20.8917 20.2517 20.6504 20.0163 20.6504 19.7257C20.6504 19.435 20.892 19.1992 21.189 19.1992C21.4864 19.1992 21.7277 19.435 21.7277 19.7257Z" fill="#1D0300"/>
    <path d="M27.0093 19.7257C27.0093 20.0163 26.7684 20.2517 26.471 20.2517C26.1736 20.2517 25.9324 20.0163 25.9324 19.7257C25.9324 19.435 26.1736 19.1992 26.471 19.1992C26.7684 19.1992 27.0093 19.435 27.0093 19.7257Z" fill="#1D0300"/>
    <path d="M23.3362 20.5986V22.05H24.2954" stroke="#C0513C" stroke-width="0.268777" stroke-miterlimit="10" stroke-linecap="round" stroke-linejoin="round"/>
    <path d="M19.1289 17.471L22.6464 17.161C22.6464 17.161 22.3314 16.2701 20.9091 16.4148C19.4541 16.5625 19.1289 17.471 19.1289 17.471Z" fill="black"/>
    <path d="M28.1964 17.471L24.679 17.161C24.679 17.161 24.9939 16.2701 26.4162 16.4148C27.8712 16.5625 28.1964 17.471 28.1964 17.471Z" fill="black"/>
    <path d="M22.0828 23.2236H25.5529C25.5529 23.2236 25.3901 24.2625 23.7665 24.2625C22.1429 24.2625 22.0828 23.2236 22.0828 23.2236Z" fill="white"/>
    <path d="M18.0378 21.0543C18.0378 21.0543 19.0226 13.7528 18.5408 12.5498C18.5408 12.5498 15.1902 15.2587 18.0378 21.0543Z" fill="#1D0300"/>
    <path d="M29.9204 21.003C29.9204 21.003 28.812 14.0306 29.1193 12.0244C29.1193 12.0244 32.3548 14.8254 29.9204 21.003Z" fill="#1D0300"/>
    <path d="M28.9134 11.4211L25.8459 10.9678L25.5756 10.4492L23.9568 10.6886L22.3376 10.4492L22.0677 10.9678L19.0005 11.4211L18.5913 13.0252L18.6921 14.874C18.6921 14.874 19.1776 12.7768 20.868 13.1947C21.2665 13.2932 21.7436 13.4563 22.3016 13.5663C22.8227 13.677 23.3191 13.7276 23.7878 13.7355C23.8431 13.7369 23.9003 13.7355 23.9568 13.7358C24.0133 13.7355 24.0705 13.7369 24.1258 13.7355C24.5944 13.7276 25.0909 13.677 25.6123 13.5663C26.17 13.4563 26.6577 13.3266 27.0456 13.1947C28.6128 12.6614 29.1899 14.7787 29.1899 14.7787L29.3223 13.0252L28.9134 11.4211Z" fill="#1D0300"/>
    <path d="M28.8463 13.3292C28.8463 13.3292 26.8513 15.0691 24.2952 13.7324C24.2952 13.7324 17.7927 17.6475 15.9572 13.3851C14.427 9.83223 20.7789 5.01001 27.3323 10.4436L28.8463 13.3292Z" fill="#1D0300"/>
    <path d="M20.3651 33.7847L18.2336 34.7419C18.2336 34.7419 18.2102 38.2345 24.0025 38.0536C29.9414 37.8679 29.9062 34.7949 29.9062 34.7949L27.601 33.7227L20.3651 33.7847Z" fill="#DC7E68"/>
  </g>
</svg>