<svg xmlns="http://www.w3.org/2000/svg" width="24" height="24" viewBox="0 0 24 24" fill="none">
  <path d="M18.7123 22.4624C18.5998 22.4624 18.4498 22.4249 18.3373 22.3874L11.2498 18.5249C10.9873 18.3749 10.8373 18.1499 10.8748 17.8499C10.8748 17.5874 11.0248 17.3249 11.2873 17.1749L18.3748 13.6124C18.5998 13.4999 18.8998 13.4999 19.1248 13.6499C19.3498 13.7999 19.4998 14.0249 19.4998 14.2874V21.7124C19.4998 21.9749 19.3498 22.2374 19.1248 22.3499C18.9748 22.4249 18.8623 22.4624 18.7123 22.4624ZM13.2373 17.8874L17.9623 20.4374V15.4874L13.2373 17.8874Z" fill="white"/>
  <path d="M18.75 6.75H1.875C1.4625 6.75 1.125 6.4125 1.125 6C1.125 5.5875 1.4625 5.25 1.875 5.25H18.75C19.1625 5.25 19.5 5.5875 19.5 6C19.5 6.4125 19.1625 6.75 18.75 6.75Z" fill="white"/>
  <path d="M18.75 12.75H1.875C1.4625 12.75 1.125 12.4125 1.125 12C1.125 11.5875 1.4625 11.25 1.875 11.25H18.75C19.1625 11.25 19.5 11.5875 19.5 12C19.5 12.4125 19.1625 12.75 18.75 12.75Z" fill="white"/>
  <path d="M9.375 18.75H1.875C1.4625 18.75 1.125 18.4125 1.125 18C1.125 17.5875 1.4625 17.25 1.875 17.25H9.375C9.7875 17.25 10.125 17.5875 10.125 18C10.125 18.4125 9.7875 18.75 9.375 18.75Z" fill="white"/>
</svg>